<svg width="24" height="24" viewBox="0 0 24 24" fill="none" xmlns="http://www.w3.org/2000/svg">
<path d="M9.775 12C9.175 12 8.675 11.775 8.275 11.325C7.875 10.875 7.71667 10.35 7.8 9.75L8.125 7.3C8.25833 6.35 8.69167 5.56267 9.425 4.938C10.1583 4.31267 11.0167 4 12 4C12.9833 4 13.8417 4.31267 14.575 4.938C15.3083 5.56267 15.7417 6.35 15.875 7.3L16.2 9.75C16.2833 10.35 16.125 10.875 15.725 11.325C15.325 11.775 14.825 12 14.225 12H9.775ZM9.775 10H14.225L13.9 7.6C13.8333 7.13333 13.621 6.75 13.263 6.45C12.9043 6.15 12.4833 6 12 6C11.5167 6 11.096 6.15 10.738 6.45C10.3793 6.75 10.1667 7.13333 10.1 7.6L9.775 10ZM4 20V17.2C4 16.6333 4.146 16.1123 4.438 15.637C4.72933 15.1623 5.11667 14.8 5.6 14.55C6.63333 14.0333 7.68333 13.6457 8.75 13.387C9.81667 13.129 10.9 13 12 13C13.1 13 14.1833 13.129 15.25 13.387C16.3167 13.6457 17.3667 14.0333 18.4 14.55C18.8833 14.8 19.2707 15.1623 19.562 15.637C19.854 16.1123 20 16.6333 20 17.2V20H4ZM6 18H18V17.2C18 17.0167 17.9543 16.85 17.863 16.7C17.771 16.55 17.65 16.4333 17.5 16.35C16.6 15.9 15.6917 15.5623 14.775 15.337C13.8583 15.1123 12.9333 15 12 15C11.0667 15 10.1417 15.1123 9.225 15.337C8.30833 15.5623 7.4 15.9 6.5 16.35C6.35 16.4333 6.22933 16.55 6.138 16.7C6.046 16.85 6 17.0167 6 17.2V18Z" fill="#D13888"/>
</svg>
