<svg width="15" height="18" viewBox="0 0 15 18" fill="none" xmlns="http://www.w3.org/2000/svg">
<path d="M7.16363 8.74017C7.16363 8.9492 7.1887 9.14517 7.23885 9.32807C7.2882 9.51098 7.37257 9.68082 7.49196 9.83759L12.9841 17.0492C13.203 17.3366 13.4768 17.4866 13.8055 17.4992C14.1334 17.5127 14.4168 17.3628 14.6556 17.0492C14.8745 16.7618 14.9839 16.396 14.9839 15.9518C14.9839 15.5076 14.8745 15.1418 14.6556 14.8544L10.0291 8.74017L14.6556 2.62597C14.8745 2.33855 14.9891 1.97954 14.9994 1.54893C15.009 1.11728 14.8944 0.74468 14.6556 0.431131C14.4367 0.143711 14.1581 0 13.8198 0C13.4816 0 13.203 0.143711 12.9841 0.431131L7.49196 7.64275C7.37257 7.79953 7.2882 7.96936 7.23885 8.15227C7.1887 8.33517 7.16363 8.53114 7.16363 8.74017ZM0 8.74017C0 8.9492 0.025075 9.14517 0.0752201 9.32807C0.12457 9.51098 0.208941 9.68082 0.328335 9.83759L5.82045 17.0492C6.03934 17.3366 6.31315 17.4866 6.64188 17.4992C6.96982 17.5127 7.25318 17.3628 7.49196 17.0492C7.71085 16.7618 7.8203 16.396 7.8203 15.9518C7.8203 15.5076 7.71085 15.1418 7.49196 14.8544L2.86545 8.74017L7.49196 2.62597C7.71085 2.33855 7.82547 1.97954 7.83582 1.54893C7.84537 1.11728 7.73075 0.74468 7.49196 0.431131C7.27308 0.143711 6.99449 0 6.65621 0C6.31793 0 6.03934 0.143711 5.82045 0.431131L0.328335 7.64275C0.208941 7.79953 0.12457 7.96936 0.0752201 8.15227C0.025075 8.33517 0 8.53114 0 8.74017Z" fill="#D13888"/>
</svg>
